<svg width="161" height="27" viewBox="0 0 161 27" fill="none" xmlns="http://www.w3.org/2000/svg">
<rect width="161" height="27" fill="#F5F5F5"/>
<rect width="1728" height="6013" transform="translate(-284 -33)" fill="white"/>
<path d="M3.51143 21.789C2.65367 21.789 2.05503 21.6 1.71551 21.222C1.39385 20.862 1.23302 20.394 1.23302 19.818C1.23302 19.296 1.34024 18.675 1.55468 17.955C1.76912 17.235 1.98355 16.542 2.19799 15.876C2.55539 14.85 2.94853 13.734 3.3774 12.528C3.82415 11.322 4.28877 10.098 4.77125 8.856C5.25374 7.614 5.73622 6.399 6.21871 5.211C6.71907 4.023 7.19262 2.934 7.63936 1.944C6.40634 1.962 5.36096 1.998 4.5032 2.052C3.66332 2.088 2.89492 2.142 2.19799 2.214C1.51894 2.286 0.786274 2.394 0 2.538C0.0714794 1.872 0.402072 1.359 0.991777 0.999C1.58148 0.639 2.36776 0.387 3.3506 0.243C4.33344 0.081 5.45924 0 6.728 0C7.78232 0 8.73836 0.0360001 9.59611 0.108C10.4539 0.18 11.258 0.261 12.0085 0.351C12.7769 0.423 13.5364 0.477 14.287 0.513C14.2512 0.909 14.0814 1.161 13.7777 1.269C13.4739 1.377 13.0807 1.431 12.5982 1.431C12.2766 1.611 11.9103 1.737 11.4993 1.809C11.0882 1.863 10.6594 1.899 10.2126 1.917C9.78375 1.935 9.3638 1.944 8.9528 1.944C8.29161 3.618 7.59469 5.571 6.86203 7.803C6.12936 10.017 5.41457 12.42 4.71764 15.012C4.46746 15.93 4.24409 16.74 4.04752 17.442C3.86882 18.144 3.72587 18.792 3.61865 19.386C3.5293 19.962 3.48462 20.547 3.48462 21.141C3.48462 21.231 3.48462 21.33 3.48462 21.438C3.48462 21.546 3.49356 21.663 3.51143 21.789Z" fill="black"/>
<path d="M11.8167 20.466C11.4593 20.466 11.1823 20.169 10.9858 19.575C10.8071 18.999 10.7177 18.333 10.7177 17.577C10.7177 16.731 10.8517 15.714 11.1198 14.526C11.4057 13.338 11.781 12.096 12.2456 10.8C12.7281 9.486 13.2552 8.208 13.8271 6.966C14.4168 5.706 15.0154 4.563 15.623 3.537C16.2306 2.511 16.8024 1.692 17.3385 1.08C17.8925 0.468 18.375 0.162 18.786 0.162C19.1255 0.162 19.3667 0.36 19.5097 0.756C19.6705 1.152 19.7509 1.548 19.7509 1.944C19.7509 2.43 19.6348 3.033 19.4025 3.753C19.188 4.473 18.8843 5.247 18.4911 6.075C18.098 6.885 17.6423 7.686 17.1241 8.478C16.6058 9.252 16.034 9.972 15.4086 10.638C14.801 11.286 14.1845 11.799 13.559 12.177C13.3267 12.735 13.1391 13.32 12.9961 13.932C12.8532 14.544 12.746 15.138 12.6745 15.714C12.6209 16.272 12.5941 16.785 12.5941 17.253C12.5941 17.415 12.5941 17.568 12.5941 17.712C12.6119 17.838 12.6209 17.955 12.6209 18.063C12.8174 17.541 13.0408 16.974 13.291 16.362C13.5412 15.75 13.8271 15.147 14.1487 14.553C14.4704 13.959 14.8278 13.419 15.2209 12.933C15.6141 12.447 16.0429 12.06 16.5076 11.772C16.9722 11.466 17.4904 11.313 18.0622 11.313C18.5983 11.313 19.0183 11.448 19.3221 11.718C19.6258 11.97 19.8492 12.285 19.9922 12.663C20.1351 13.041 20.2066 13.428 20.2066 13.824C20.2066 14.4 20.1083 14.949 19.9118 15.471C19.7331 15.975 19.5454 16.461 19.3489 16.929C19.1523 17.397 19.054 17.847 19.054 18.279C19.054 18.639 19.1255 18.891 19.2685 19.035C19.4293 19.179 19.6169 19.251 19.8314 19.251C20.2424 19.251 20.698 19.053 21.1984 18.657C21.7166 18.261 22.2259 17.739 22.7263 17.091C23.2445 16.425 23.6912 15.705 24.0665 14.931L24.4418 15.309C24.0486 16.191 23.5751 17.001 23.0211 17.739C22.485 18.459 21.8953 19.026 21.252 19.44C20.6087 19.872 19.9207 20.088 19.188 20.088C18.5626 20.088 18.0801 19.917 17.7406 19.575C17.4189 19.251 17.2581 18.837 17.2581 18.333C17.2581 17.955 17.3296 17.532 17.4725 17.064C17.6155 16.596 17.7495 16.128 17.8746 15.66C18.0176 15.174 18.089 14.724 18.089 14.31C18.089 13.842 17.9908 13.518 17.7942 13.338C17.5976 13.158 17.3564 13.068 17.0705 13.068C16.6237 13.068 16.2216 13.248 15.8642 13.608C15.5068 13.95 15.1852 14.409 14.8993 14.985C14.6134 15.543 14.3364 16.137 14.0683 16.767C13.8181 17.397 13.568 17.991 13.3178 18.549C13.0855 19.107 12.8442 19.566 12.5941 19.926C12.3618 20.286 12.1026 20.466 11.8167 20.466ZM13.9611 10.908C14.4615 10.512 14.935 10.017 15.3818 9.423C15.8464 8.811 16.2753 8.172 16.6684 7.506C17.0615 6.84 17.41 6.192 17.7138 5.562C18.0354 4.914 18.2767 4.329 18.4375 3.807C18.6162 3.285 18.7056 2.898 18.7056 2.646C18.7056 2.574 18.6966 2.529 18.6787 2.511C18.6787 2.493 18.6698 2.475 18.6519 2.457C18.5269 2.457 18.2767 2.7 17.9014 3.186C17.5261 3.654 17.0973 4.293 16.6148 5.103C16.1323 5.895 15.6498 6.795 15.1673 7.803C14.7027 8.811 14.3006 9.846 13.9611 10.908Z" fill="black"/>
<path d="M26.4634 20.628C25.3555 20.628 24.5156 20.322 23.9438 19.71C23.372 19.098 23.086 18.342 23.086 17.442C23.086 16.65 23.2826 15.804 23.6757 14.904C24.0868 14.004 24.6228 13.158 25.284 12.366C25.9631 11.574 26.7047 10.935 27.5088 10.449C28.3308 9.963 29.1439 9.72 29.9481 9.72C30.3769 9.72 30.7701 9.837 31.1275 10.071C31.5027 10.287 31.6904 10.737 31.6904 11.421C31.6904 12.105 31.4938 12.744 31.1007 13.338C30.7075 13.932 30.1804 14.463 29.5192 14.931C28.858 15.399 28.1343 15.786 27.348 16.092C26.5796 16.38 25.8023 16.569 25.016 16.659C24.9802 16.803 24.9534 16.947 24.9356 17.091C24.9356 17.217 24.9356 17.352 24.9356 17.496C24.9356 17.712 24.9534 17.946 24.9892 18.198C25.0428 18.45 25.1411 18.693 25.284 18.927C25.4449 19.161 25.6593 19.35 25.9273 19.494C26.2133 19.638 26.5796 19.71 27.0263 19.71C27.7947 19.71 28.5542 19.494 29.3047 19.062C30.0553 18.63 30.7522 18.063 31.3955 17.361C32.0567 16.641 32.6107 15.849 33.0574 14.985L33.4595 15.282C32.977 16.362 32.3605 17.307 31.61 18.117C30.8594 18.909 30.0374 19.521 29.1439 19.953C28.2683 20.403 27.3748 20.628 26.4634 20.628ZM25.2036 15.984C25.6861 15.858 26.2222 15.642 26.8119 15.336C27.4016 15.03 27.9734 14.67 28.5274 14.256C29.0814 13.824 29.5371 13.356 29.8945 12.852C30.2519 12.33 30.4305 11.79 30.4305 11.232C30.4305 11.034 30.3948 10.89 30.3233 10.8C30.2519 10.71 30.1089 10.665 29.8945 10.665C29.4834 10.665 29.0367 10.827 28.5542 11.151C28.0896 11.457 27.6339 11.871 27.1872 12.393C26.7583 12.915 26.3652 13.491 26.0078 14.121C25.6504 14.733 25.3823 15.354 25.2036 15.984Z" fill="black"/>
<path d="M42.0559 21.789C41.5734 21.789 41.1177 21.654 40.6888 21.384C40.2778 21.132 40.0723 20.799 40.0723 20.385C40.0723 20.169 40.117 19.917 40.2063 19.629C40.2957 19.359 40.3761 19.107 40.4476 18.873C41.0194 17.127 41.5466 15.498 42.0291 13.986C42.5294 12.474 43.0298 11.007 43.5301 9.585C44.0305 8.163 44.5576 6.741 45.1116 5.319C45.6656 3.897 46.291 2.412 46.9879 0.864C46.3089 1.008 45.7103 1.197 45.192 1.431C44.6738 1.665 44.2539 1.872 43.9322 2.052C43.6284 2.232 43.414 2.322 43.2889 2.322C43.2174 2.322 43.1102 2.277 42.9672 2.187C42.8243 2.097 42.6902 1.989 42.5652 1.863C42.4579 1.719 42.4043 1.593 42.4043 1.485C42.8868 1.287 43.4497 1.071 44.093 0.837C44.7363 0.603 45.4333 0.405 46.1838 0.243C46.9343 0.081 47.6938 0 48.4622 0C49.2664 0 50.0794 0.108 50.9014 0.324001C51.7413 0.54 52.5097 0.873 53.2067 1.323C53.9036 1.755 54.4665 2.304 54.8954 2.97C55.3242 3.618 55.5387 4.374 55.5387 5.238C55.5387 6.174 55.3242 6.984 54.8954 7.668C54.4844 8.352 53.9304 8.928 53.2335 9.396C52.5544 9.846 51.8128 10.215 51.0087 10.503C50.2224 10.773 49.4361 10.989 48.6498 11.151C47.8636 11.295 47.1577 11.394 46.5323 11.448C45.9068 11.484 45.4511 11.502 45.1652 11.502H44.924C44.4058 13.338 43.8965 15.156 43.3961 16.956C42.9136 18.738 42.4669 20.349 42.0559 21.789ZM45.0848 10.935C46.0676 10.881 47.0594 10.719 48.0601 10.449C49.0787 10.179 49.999 9.792 50.821 9.288C51.6609 8.784 52.331 8.163 52.8314 7.425C53.3496 6.669 53.6087 5.787 53.6087 4.779C53.6087 3.843 53.3764 3.078 52.9118 2.484C52.4472 1.89 51.8396 1.449 51.0891 1.161C50.3564 0.855 49.5701 0.702001 48.7303 0.702001C48.0869 1.998 47.4526 3.546 46.8271 5.346C46.2195 7.128 45.6388 8.991 45.0848 10.935Z" fill="black"/>
<path d="M55.1389 20.466C54.7815 20.466 54.5045 20.169 54.308 19.575C54.1293 18.999 54.0399 18.333 54.0399 17.577C54.0399 16.731 54.1739 15.714 54.442 14.526C54.7279 13.338 55.1032 12.096 55.5678 10.8C56.0503 9.486 56.5774 8.208 57.1493 6.966C57.739 5.706 58.3376 4.563 58.9452 3.537C59.5528 2.511 60.1246 1.692 60.6607 1.08C61.2147 0.468 61.6971 0.162 62.1082 0.162C62.4477 0.162 62.6889 0.36 62.8319 0.756C62.9927 1.152 63.0731 1.548 63.0731 1.944C63.0731 2.43 62.957 3.033 62.7247 3.753C62.5102 4.473 62.2064 5.247 61.8133 6.075C61.4202 6.885 60.9645 7.686 60.4463 8.478C59.928 9.252 59.3562 9.972 58.7307 10.638C58.1232 11.286 57.5067 11.799 56.8812 12.177C56.6489 12.735 56.4613 13.32 56.3183 13.932C56.1754 14.544 56.0681 15.138 55.9967 15.714C55.9431 16.272 55.9162 16.785 55.9162 17.253C55.9162 17.415 55.9162 17.568 55.9162 17.712C55.9341 17.838 55.9431 17.955 55.9431 18.063C56.1396 17.541 56.363 16.974 56.6132 16.362C56.8633 15.75 57.1493 15.147 57.4709 14.553C57.7926 13.959 58.15 13.419 58.5431 12.933C58.9363 12.447 59.3651 12.06 59.8297 11.772C60.2944 11.466 60.8126 11.313 61.3844 11.313C61.9205 11.313 62.3405 11.448 62.6442 11.718C62.948 11.97 63.1714 12.285 63.3144 12.663C63.4573 13.041 63.5288 13.428 63.5288 13.824C63.5288 14.4 63.4305 14.949 63.234 15.471C63.0553 15.975 62.8676 16.461 62.6711 16.929C62.4745 17.397 62.3762 17.847 62.3762 18.279C62.3762 18.639 62.4477 18.891 62.5906 19.035C62.7515 19.179 62.9391 19.251 63.1535 19.251C63.5645 19.251 64.0202 19.053 64.5206 18.657C65.0388 18.261 65.5481 17.739 66.0485 17.091C66.5667 16.425 67.0134 15.705 67.3887 14.931L67.764 15.309C67.3708 16.191 66.8973 17.001 66.3433 17.739C65.8072 18.459 65.2175 19.026 64.5742 19.44C63.9309 19.872 63.2429 20.088 62.5102 20.088C61.8848 20.088 61.4023 19.917 61.0628 19.575C60.7411 19.251 60.5803 18.837 60.5803 18.333C60.5803 17.955 60.6518 17.532 60.7947 17.064C60.9377 16.596 61.0717 16.128 61.1968 15.66C61.3397 15.174 61.4112 14.724 61.4112 14.31C61.4112 13.842 61.3129 13.518 61.1164 13.338C60.9198 13.158 60.6786 13.068 60.3926 13.068C59.9459 13.068 59.5438 13.248 59.1864 13.608C58.829 13.95 58.5074 14.409 58.2215 14.985C57.9355 15.543 57.6586 16.137 57.3905 16.767C57.1403 17.397 56.8902 17.991 56.64 18.549C56.4077 19.107 56.1664 19.566 55.9162 19.926C55.6839 20.286 55.4248 20.466 55.1389 20.466ZM57.2833 10.908C57.7836 10.512 58.2572 10.017 58.7039 9.423C59.1686 8.811 59.5974 8.172 59.9906 7.506C60.3837 6.84 60.7322 6.192 61.036 5.562C61.3576 4.914 61.5989 4.329 61.7597 3.807C61.9384 3.285 62.0277 2.898 62.0277 2.646C62.0277 2.574 62.0188 2.529 62.0009 2.511C62.0009 2.493 61.992 2.475 61.9741 2.457C61.849 2.457 61.5989 2.7 61.2236 3.186C60.8483 3.654 60.4194 4.293 59.937 5.103C59.4545 5.895 58.972 6.795 58.4895 7.803C58.0249 8.811 57.6228 9.846 57.2833 10.908Z" fill="black"/>
<path d="M68.633 20.304C67.8467 20.304 67.2928 20.052 66.9711 19.548C66.6673 19.062 66.5154 18.486 66.5154 17.82C66.5154 17.262 66.6048 16.686 66.7835 16.092C66.9622 15.48 67.2034 14.913 67.5072 14.391C67.811 13.869 68.1505 13.455 68.5258 13.149C68.9011 12.825 69.2763 12.663 69.6516 12.663C69.7588 12.663 69.866 12.681 69.9733 12.717C70.0983 12.735 70.2056 12.771 70.2949 12.825C70.1162 13.023 69.9107 13.32 69.6784 13.716C69.464 14.094 69.2585 14.526 69.0619 15.012C68.8653 15.48 68.7045 15.957 68.5794 16.443C68.4543 16.911 68.3918 17.316 68.3918 17.658C68.3918 18.144 68.4722 18.513 68.633 18.765C68.8117 18.999 69.053 19.116 69.3568 19.116C69.7141 19.116 70.143 18.918 70.6434 18.522C71.1437 18.108 71.6352 17.613 72.1176 17.037C71.5994 16.587 71.2063 16.038 70.9382 15.39C70.6702 14.724 70.5362 14.004 70.5362 13.23C70.5362 12.708 70.6344 12.195 70.831 11.691C71.0276 11.187 71.3224 10.773 71.7156 10.449C72.1266 10.107 72.6359 9.936 73.2434 9.936C73.994 9.936 74.5033 10.143 74.7713 10.557C75.0394 10.953 75.1734 11.448 75.1734 12.042C75.1734 12.744 75.0036 13.518 74.6641 14.364C74.3246 15.21 73.8957 16.02 73.3775 16.794C73.6634 16.938 73.9761 17.01 74.3156 17.01C74.6015 17.01 74.9232 16.956 75.2806 16.848C75.638 16.722 75.9954 16.515 76.3528 16.227C76.7102 15.939 76.9961 15.543 77.2105 15.039L77.5858 15.336C77.2105 16.218 76.6923 16.848 76.0311 17.226C75.3878 17.586 74.7624 17.766 74.1548 17.766C73.9225 17.766 73.6991 17.748 73.4847 17.712C73.2702 17.658 73.0647 17.595 72.8682 17.523C72.2606 18.297 71.5816 18.954 70.831 19.494C70.0805 20.034 69.3478 20.304 68.633 20.304ZM72.6805 16.281C73.1094 15.615 73.4757 14.922 73.7795 14.202C74.0833 13.482 74.2352 12.798 74.2352 12.15C74.2352 11.664 74.1637 11.313 74.0208 11.097C73.8778 10.863 73.6813 10.746 73.4311 10.746C73.0916 10.746 72.7342 11.007 72.3589 11.529C71.9836 12.033 71.796 12.672 71.796 13.446C71.796 13.914 71.8675 14.418 72.0104 14.958C72.1712 15.498 72.3946 15.939 72.6805 16.281Z" fill="black"/>
<path d="M78.9847 20.682C78.2163 20.682 77.6087 20.448 77.162 19.98C76.7331 19.53 76.5187 18.855 76.5187 17.955C76.5187 17.181 76.6616 16.227 76.9475 15.093C77.2334 13.941 77.5998 12.762 78.0465 11.556C77.8857 11.52 77.7249 11.493 77.564 11.475C77.4032 11.439 77.2424 11.394 77.0816 11.34V10.746C77.2781 10.764 77.4747 10.782 77.6713 10.8C77.8678 10.818 78.0823 10.836 78.3146 10.854C78.6898 9.882 79.0919 8.946 79.5208 8.046C79.9497 7.146 80.3785 6.345 80.8074 5.643C81.2363 4.923 81.6384 4.356 82.0136 3.942C82.4068 3.528 82.7463 3.321 83.0322 3.321C83.1752 3.321 83.3092 3.375 83.4343 3.483C83.5772 3.591 83.6487 3.753 83.6487 3.969C83.6487 4.293 83.4611 4.797 83.0858 5.481C82.7106 6.165 82.2459 6.975 81.692 7.911C81.1559 8.847 80.6287 9.855 80.1105 10.935C80.2713 10.935 80.4322 10.935 80.593 10.935C80.7538 10.935 80.9057 10.935 81.0487 10.935C81.7098 10.935 82.3621 10.926 83.0054 10.908C83.6487 10.89 84.301 10.845 84.9622 10.773V11.394C83.9793 11.484 83.0948 11.556 82.3085 11.61C81.5222 11.664 80.7985 11.7 80.1373 11.718C80.0658 11.718 80.0033 11.718 79.9497 11.718C79.8961 11.718 79.8335 11.718 79.762 11.718C79.3689 12.636 79.0294 13.59 78.7435 14.58C78.4575 15.552 78.3146 16.506 78.3146 17.442C78.3146 18.198 78.4307 18.738 78.663 19.062C78.8953 19.386 79.2706 19.548 79.7888 19.548C80.7181 19.548 81.6294 19.143 82.5229 18.333C83.4343 17.505 84.2384 16.38 84.9354 14.958L85.2838 15.228C84.8371 16.254 84.2831 17.181 83.6219 18.009C82.9607 18.837 82.2281 19.485 81.4239 19.953C80.6377 20.439 79.8246 20.682 78.9847 20.682Z" fill="black"/>
<path d="M86.1451 20.304C85.3589 20.304 84.8049 20.052 84.4832 19.548C84.1795 19.062 84.0276 18.486 84.0276 17.82C84.0276 17.262 84.1169 16.686 84.2956 16.092C84.4743 15.48 84.7155 14.913 85.0193 14.391C85.3231 13.869 85.6626 13.455 86.0379 13.149C86.4132 12.825 86.7884 12.663 87.1637 12.663C87.2709 12.663 87.3782 12.681 87.4854 12.717C87.6105 12.735 87.7177 12.771 87.807 12.825C87.6283 13.023 87.4228 13.32 87.1905 13.716C86.9761 14.094 86.7706 14.526 86.574 15.012C86.3774 15.48 86.2166 15.957 86.0915 16.443C85.9664 16.911 85.9039 17.316 85.9039 17.658C85.9039 18.144 85.9843 18.513 86.1451 18.765C86.3238 18.999 86.5651 19.116 86.8689 19.116C87.2263 19.116 87.6551 18.918 88.1555 18.522C88.6558 18.108 89.1473 17.613 89.6298 17.037C89.1115 16.587 88.7184 16.038 88.4503 15.39C88.1823 14.724 88.0483 14.004 88.0483 13.23C88.0483 12.708 88.1466 12.195 88.3431 11.691C88.5397 11.187 88.8345 10.773 89.2277 10.449C89.6387 10.107 90.148 9.936 90.7556 9.936C91.5061 9.936 92.0154 10.143 92.2834 10.557C92.5515 10.953 92.6855 11.448 92.6855 12.042C92.6855 12.744 92.5157 13.518 92.1762 14.364C91.8367 15.21 91.4078 16.02 90.8896 16.794C91.1755 16.938 91.4882 17.01 91.8277 17.01C92.1137 17.01 92.4353 16.956 92.7927 16.848C93.1501 16.722 93.5075 16.515 93.8649 16.227C94.2223 15.939 94.5082 15.543 94.7227 15.039L95.0979 15.336C94.7227 16.218 94.2044 16.848 93.5433 17.226C92.8999 17.586 92.2745 17.766 91.6669 17.766C91.4346 17.766 91.2112 17.748 90.9968 17.712C90.7824 17.658 90.5769 17.595 90.3803 17.523C89.7727 18.297 89.0937 18.954 88.3431 19.494C87.5926 20.034 86.8599 20.304 86.1451 20.304ZM90.1927 16.281C90.6215 15.615 90.9879 14.922 91.2916 14.202C91.5954 13.482 91.7473 12.798 91.7473 12.15C91.7473 11.664 91.6758 11.313 91.5329 11.097C91.3899 10.863 91.1934 10.746 90.9432 10.746C90.6037 10.746 90.2463 11.007 89.871 11.529C89.4957 12.033 89.3081 12.672 89.3081 13.446C89.3081 13.914 89.3796 14.418 89.5225 14.958C89.6834 15.498 89.9067 15.939 90.1927 16.281Z" fill="black"/>
<path d="M95.2906 27C94.8796 27 94.5043 26.874 94.1648 26.622C93.8253 26.37 93.6555 25.956 93.6555 25.38C93.6555 24.822 93.8253 24.309 94.1648 23.841C94.4864 23.391 94.9064 22.968 95.4246 22.572C95.9607 22.194 96.5325 21.843 97.1401 21.519C97.7656 21.195 98.3642 20.889 98.936 20.601C99.1684 20.025 99.3828 19.404 99.5794 18.738C99.7938 18.054 99.9993 17.316 100.196 16.524C99.5347 17.442 98.8378 18.207 98.1051 18.819C97.3903 19.431 96.6666 19.737 95.9339 19.737C95.2548 19.737 94.7277 19.494 94.3524 19.008C93.995 18.504 93.8163 17.856 93.8163 17.064C93.8163 16.128 94.0397 15.237 94.4864 14.391C94.9511 13.545 95.5497 12.798 96.2824 12.15C97.0329 11.502 97.8192 10.998 98.6412 10.638C99.4811 10.26 100.276 10.071 101.027 10.071C101.563 10.071 101.947 10.161 102.179 10.341C102.43 10.521 102.555 10.737 102.555 10.989C102.555 11.169 102.501 11.313 102.394 11.421C102.305 11.511 102.242 11.565 102.206 11.583C102.081 11.421 101.929 11.313 101.751 11.259C101.572 11.187 101.348 11.151 101.08 11.151C100.383 11.151 99.7044 11.358 99.0433 11.772C98.3999 12.186 97.8281 12.717 97.3278 13.365C96.8453 13.995 96.4521 14.652 96.1483 15.336C95.8624 16.02 95.7195 16.641 95.7195 17.199C95.7195 17.613 95.7999 17.928 95.9607 18.144C96.1394 18.342 96.3628 18.441 96.6308 18.441C97.1312 18.441 97.7388 18.108 98.4536 17.442C99.1862 16.758 99.8921 15.93 100.571 14.958C100.607 14.742 100.643 14.553 100.678 14.391C100.732 14.211 100.786 13.995 100.839 13.743C100.929 13.347 101.08 12.978 101.295 12.636C101.527 12.294 101.867 12.123 102.313 12.123C102.403 12.123 102.492 12.132 102.581 12.15C102.689 12.168 102.805 12.195 102.93 12.231C102.93 12.519 102.841 13.041 102.662 13.797C102.501 14.553 102.26 15.435 101.938 16.443C101.634 17.451 101.286 18.486 100.893 19.548C101.465 19.278 102.036 18.927 102.608 18.495C103.18 18.045 103.698 17.523 104.163 16.929C104.628 16.335 104.994 15.687 105.262 14.985L105.664 15.336C105.378 16.146 104.94 16.893 104.351 17.577C103.761 18.243 103.127 18.819 102.447 19.305C101.768 19.791 101.143 20.169 100.571 20.439C100.089 21.645 99.5615 22.743 98.9896 23.733C98.4357 24.723 97.8549 25.515 97.2473 26.109C96.6398 26.703 95.9875 27 95.2906 27ZM95.2102 26.001C95.5497 26.001 96.0143 25.659 96.604 24.975C97.2116 24.309 97.8638 23.157 98.5608 21.519C97.8638 21.861 97.2116 22.221 96.604 22.599C96.0143 22.977 95.5318 23.373 95.1566 23.787C94.7813 24.201 94.5937 24.651 94.5937 25.137C94.5937 25.407 94.6473 25.614 94.7545 25.758C94.8796 25.92 95.0315 26.001 95.2102 26.001Z" fill="black"/>
<path d="M109.458 20.142C108.833 20.142 108.333 19.971 107.957 19.629C107.6 19.305 107.421 18.873 107.421 18.333C107.421 17.793 107.546 17.235 107.796 16.659C108.047 16.065 108.288 15.48 108.52 14.904C108.77 14.328 108.895 13.815 108.895 13.365C108.895 12.843 108.744 12.447 108.44 12.177C108.136 11.889 107.805 11.637 107.448 11.421C107.055 12.447 106.626 13.437 106.161 14.391C105.697 15.327 105.322 16.047 105.036 16.551L104.741 15.984C104.991 15.516 105.313 14.841 105.706 13.959C106.117 13.059 106.519 12.051 106.912 10.935C106.733 10.755 106.644 10.53 106.644 10.26C106.644 9.738 106.787 9.297 107.073 8.937C107.377 8.577 107.618 8.397 107.796 8.397C108.011 8.397 108.136 8.496 108.172 8.694C108.225 8.874 108.252 9.009 108.252 9.099C108.252 9.189 108.207 9.36 108.118 9.612C108.029 9.864 107.975 10.026 107.957 10.098C107.975 10.332 108.118 10.557 108.386 10.773C108.672 10.971 108.994 11.196 109.351 11.448C109.726 11.7 110.048 12.015 110.316 12.393C110.602 12.771 110.745 13.248 110.745 13.824C110.745 14.346 110.629 14.886 110.397 15.444C110.182 16.002 109.959 16.524 109.726 17.01C109.512 17.496 109.405 17.928 109.405 18.306C109.405 18.594 109.476 18.792 109.619 18.9C109.78 18.99 109.959 19.035 110.155 19.035C110.584 19.035 111.022 18.909 111.469 18.657C111.933 18.387 112.38 18.045 112.809 17.631C113.256 17.217 113.649 16.785 113.988 16.335C114.328 15.867 114.578 15.435 114.739 15.039L115.195 15.39C114.855 16.146 114.382 16.893 113.774 17.631C113.166 18.369 112.487 18.972 111.737 19.44C111.004 19.908 110.245 20.142 109.458 20.142Z" fill="black"/>
<path d="M115.531 20.709C114.959 20.709 114.476 20.52 114.083 20.142C113.672 19.764 113.467 19.188 113.467 18.414C113.467 17.784 113.61 17.1 113.896 16.362C114.182 15.606 114.575 14.868 115.075 14.148C115.575 13.41 116.138 12.744 116.764 12.15C117.407 11.556 118.086 11.079 118.801 10.719C119.516 10.359 120.23 10.179 120.945 10.179C121.66 10.179 122.259 10.368 122.741 10.746C123.242 11.124 123.492 11.628 123.492 12.258C123.492 12.708 123.349 13.023 123.063 13.203C122.795 13.383 122.455 13.464 122.044 13.446C122.08 13.284 122.107 13.122 122.125 12.96C122.16 12.798 122.178 12.636 122.178 12.474C122.178 12.078 122.089 11.736 121.91 11.448C121.732 11.142 121.401 10.989 120.918 10.989C120.418 10.989 119.909 11.169 119.391 11.529C118.872 11.871 118.372 12.33 117.89 12.906C117.425 13.482 117.005 14.112 116.63 14.796C116.254 15.462 115.96 16.119 115.745 16.767C115.531 17.415 115.423 18 115.423 18.522C115.423 19.188 115.647 19.521 116.094 19.521C116.505 19.521 116.951 19.323 117.434 18.927C117.934 18.531 118.435 18.036 118.935 17.442C119.453 16.83 119.945 16.2 120.409 15.552C120.874 14.904 121.285 14.328 121.642 13.824C121.696 13.716 121.749 13.662 121.803 13.662C121.892 13.68 122.026 13.716 122.205 13.77C122.384 13.824 122.545 13.905 122.688 14.013C122.831 14.121 122.902 14.256 122.902 14.418C122.902 14.58 122.822 14.805 122.661 15.093C122.518 15.363 122.339 15.678 122.125 16.038C121.928 16.38 121.749 16.731 121.589 17.091C121.446 17.451 121.374 17.784 121.374 18.09C121.374 18.36 121.437 18.621 121.562 18.873C121.705 19.107 121.928 19.224 122.232 19.224C122.697 19.224 123.322 18.882 124.108 18.198C124.895 17.496 125.69 16.416 126.494 14.958L126.842 15.309C126.449 16.281 125.958 17.145 125.368 17.901C124.778 18.639 124.144 19.215 123.465 19.629C122.804 20.043 122.143 20.25 121.481 20.25C120.802 20.25 120.293 20.034 119.954 19.602C119.632 19.188 119.471 18.738 119.471 18.252C119.471 18.162 119.471 18.072 119.471 17.982C119.489 17.892 119.507 17.793 119.525 17.685C118.774 18.675 118.086 19.422 117.461 19.926C116.835 20.448 116.192 20.709 115.531 20.709Z" fill="black"/>
<path d="M124.308 27C124.165 27 124.022 26.937 123.879 26.811C123.736 26.685 123.629 26.541 123.557 26.379C123.468 26.235 123.415 26.136 123.397 26.082C123.718 25.056 124.013 24.147 124.281 23.355C124.549 22.581 124.799 21.807 125.032 21.033C125.264 20.277 125.487 19.422 125.702 18.468C125.898 17.496 126.104 16.326 126.318 14.958C126.551 13.572 126.792 11.88 127.042 9.882C127.06 9.702 127.096 9.576 127.149 9.504C127.203 9.414 127.346 9.369 127.578 9.369C128.079 9.369 128.436 9.504 128.65 9.774C128.865 10.044 128.972 10.341 128.972 10.665C128.972 10.899 128.927 11.313 128.838 11.907C128.749 12.483 128.615 13.167 128.436 13.959C128.758 13.383 129.142 12.816 129.589 12.258C130.035 11.682 130.545 11.214 131.116 10.854C131.688 10.476 132.314 10.287 132.993 10.287C133.797 10.287 134.467 10.575 135.003 11.151C135.539 11.727 135.807 12.483 135.807 13.419C135.807 14.121 135.646 14.868 135.325 15.66C135.021 16.434 134.583 17.172 134.011 17.874C133.44 18.558 132.76 19.116 131.974 19.548C131.206 19.98 130.348 20.196 129.401 20.196C128.901 20.196 128.499 20.133 128.195 20.007C127.891 19.899 127.739 19.773 127.739 19.629C127.739 19.539 127.802 19.485 127.927 19.467C128.07 19.467 128.23 19.467 128.409 19.467C129.16 19.449 129.866 19.269 130.527 18.927C131.206 18.585 131.795 18.135 132.296 17.577C132.814 17.001 133.216 16.371 133.502 15.687C133.788 15.003 133.931 14.337 133.931 13.689C133.931 13.113 133.806 12.627 133.556 12.231C133.323 11.835 132.939 11.637 132.403 11.637C131.956 11.637 131.501 11.781 131.036 12.069C130.589 12.357 130.16 12.735 129.749 13.203C129.356 13.653 128.999 14.121 128.677 14.607C128.373 15.093 128.141 15.525 127.98 15.903C127.659 17.199 127.346 18.459 127.042 19.683C126.738 20.925 126.443 22.05 126.158 23.058C125.872 24.066 125.613 24.903 125.38 25.569C125.13 26.235 124.898 26.658 124.683 26.838C124.576 26.946 124.451 27 124.308 27Z" fill="black"/>
<path d="M137.883 20.466C137.526 20.466 137.249 20.169 137.052 19.575C136.873 18.999 136.784 18.333 136.784 17.577C136.784 16.731 136.918 15.714 137.186 14.526C137.472 13.338 137.847 12.096 138.312 10.8C138.794 9.486 139.321 8.208 139.893 6.966C140.483 5.706 141.082 4.563 141.689 3.537C142.297 2.511 142.869 1.692 143.405 1.08C143.959 0.468 144.441 0.162 144.852 0.162C145.192 0.162 145.433 0.36 145.576 0.756C145.737 1.152 145.817 1.548 145.817 1.944C145.817 2.43 145.701 3.033 145.469 3.753C145.254 4.473 144.951 5.247 144.557 6.075C144.164 6.885 143.709 7.686 143.19 8.478C142.672 9.252 142.1 9.972 141.475 10.638C140.867 11.286 140.251 11.799 139.625 12.177C139.393 12.735 139.205 13.32 139.062 13.932C138.919 14.544 138.812 15.138 138.741 15.714C138.687 16.272 138.66 16.785 138.66 17.253C138.66 17.415 138.66 17.568 138.66 17.712C138.678 17.838 138.687 17.955 138.687 18.063C138.884 17.541 139.107 16.974 139.357 16.362C139.607 15.75 139.893 15.147 140.215 14.553C140.537 13.959 140.894 13.419 141.287 12.933C141.68 12.447 142.109 12.06 142.574 11.772C143.038 11.466 143.557 11.313 144.128 11.313C144.665 11.313 145.085 11.448 145.388 11.718C145.692 11.97 145.915 12.285 146.058 12.663C146.201 13.041 146.273 13.428 146.273 13.824C146.273 14.4 146.175 14.949 145.978 15.471C145.799 15.975 145.612 16.461 145.415 16.929C145.219 17.397 145.12 17.847 145.12 18.279C145.12 18.639 145.192 18.891 145.335 19.035C145.496 19.179 145.683 19.251 145.898 19.251C146.309 19.251 146.764 19.053 147.265 18.657C147.783 18.261 148.292 17.739 148.793 17.091C149.311 16.425 149.757 15.705 150.133 14.931L150.508 15.309C150.115 16.191 149.641 17.001 149.087 17.739C148.551 18.459 147.962 19.026 147.318 19.44C146.675 19.872 145.987 20.088 145.254 20.088C144.629 20.088 144.146 19.917 143.807 19.575C143.485 19.251 143.324 18.837 143.324 18.333C143.324 17.955 143.396 17.532 143.539 17.064C143.682 16.596 143.816 16.128 143.941 15.66C144.084 15.174 144.155 14.724 144.155 14.31C144.155 13.842 144.057 13.518 143.86 13.338C143.664 13.158 143.423 13.068 143.137 13.068C142.69 13.068 142.288 13.248 141.93 13.608C141.573 13.95 141.251 14.409 140.966 14.985C140.68 15.543 140.403 16.137 140.135 16.767C139.884 17.397 139.634 17.991 139.384 18.549C139.152 19.107 138.91 19.566 138.66 19.926C138.428 20.286 138.169 20.466 137.883 20.466ZM140.027 10.908C140.528 10.512 141.001 10.017 141.448 9.423C141.913 8.811 142.341 8.172 142.735 7.506C143.128 6.84 143.476 6.192 143.78 5.562C144.102 4.914 144.343 4.329 144.504 3.807C144.682 3.285 144.772 2.898 144.772 2.646C144.772 2.574 144.763 2.529 144.745 2.511C144.745 2.493 144.736 2.475 144.718 2.457C144.593 2.457 144.343 2.7 143.968 3.186C143.592 3.654 143.164 4.293 142.681 5.103C142.199 5.895 141.716 6.795 141.234 7.803C140.769 8.811 140.367 9.846 140.027 10.908Z" fill="black"/>
<path d="M150.761 27C150.314 27 149.912 26.874 149.554 26.622C149.197 26.37 149.018 25.983 149.018 25.461C149.018 24.885 149.17 24.372 149.474 23.922C149.778 23.472 150.18 23.049 150.68 22.653C151.181 22.275 151.743 21.915 152.369 21.573C152.994 21.249 153.629 20.934 154.272 20.628C154.504 19.998 154.746 19.278 154.996 18.468C155.246 17.658 155.478 16.812 155.693 15.93C155.121 16.812 154.513 17.577 153.87 18.225C153.227 18.873 152.539 19.197 151.806 19.197C151.466 19.197 151.127 19.125 150.787 18.981C150.448 18.819 150.162 18.576 149.93 18.252C149.715 17.928 149.608 17.505 149.608 16.983C149.608 16.497 149.688 15.921 149.849 15.255C150.028 14.589 150.242 13.941 150.493 13.311C150.743 12.663 151.002 12.132 151.27 11.718C151.556 11.304 151.797 11.097 151.994 11.097C152.083 11.097 152.226 11.133 152.422 11.205C152.619 11.259 152.807 11.34 152.985 11.448C153.164 11.556 153.262 11.673 153.28 11.799C153.119 12.033 152.941 12.366 152.744 12.798C152.548 13.212 152.351 13.68 152.154 14.202C151.976 14.724 151.824 15.228 151.699 15.714C151.574 16.2 151.511 16.623 151.511 16.983C151.511 17.289 151.574 17.541 151.699 17.739C151.842 17.937 152.083 18.036 152.422 18.036C152.78 18.036 153.164 17.874 153.575 17.55C154.004 17.208 154.424 16.785 154.835 16.281C155.246 15.759 155.63 15.21 155.988 14.634C156.023 14.472 156.059 14.274 156.095 14.04C156.148 13.806 156.202 13.572 156.256 13.338C156.327 13.068 156.461 12.78 156.658 12.474C156.872 12.168 157.203 12.015 157.649 12.015C157.757 12.015 157.855 12.024 157.944 12.042C158.051 12.042 158.168 12.06 158.293 12.096C158.293 12.384 158.203 12.924 158.025 13.716C157.864 14.49 157.623 15.399 157.301 16.443C156.997 17.469 156.64 18.522 156.229 19.602C157.033 19.278 157.837 18.756 158.641 18.036C159.463 17.298 160.124 16.29 160.625 15.012L161 15.336C160.732 16.2 160.321 16.956 159.767 17.604C159.231 18.252 158.623 18.81 157.944 19.278C157.265 19.746 156.586 20.133 155.907 20.439C155.442 21.591 154.933 22.662 154.379 23.652C153.825 24.66 153.244 25.47 152.637 26.082C152.029 26.694 151.404 27 150.761 27ZM150.573 26.082C150.859 26.082 151.315 25.722 151.94 25.002C152.565 24.3 153.227 23.112 153.924 21.438C153.244 21.798 152.592 22.167 151.967 22.545C151.359 22.941 150.868 23.364 150.493 23.814C150.117 24.264 149.93 24.759 149.93 25.299C149.93 25.461 149.974 25.632 150.064 25.812C150.171 25.992 150.341 26.082 150.573 26.082Z" fill="black"/>
</svg>
